<svg xmlns="http://www.w3.org/2000/svg" width="232" height="39" fill="none"><path fill="#0F85FF" d="M19.984 38.816C6.208 38.816.64 28.496.64 20c0-8.208 5.424-18.816 19.824-18.816 11.952 0 19.392 6.96 19.392 17.952s-7.68 19.68-19.872 19.68Zm2.016-2.4c3.36 0 11.136-1.632 11.136-15.504 0-10.752-6.192-17.424-14.064-17.424-5.52 0-11.808 3.072-11.808 15.024 0 9.984 5.52 17.904 14.736 17.904Zm27.653-12.192v-8.448c0-7.296 0-8.64-.096-10.176-.096-1.632-.48-2.4-2.064-2.736-.384-.096-1.2-.144-1.872-.144-.528 0-.816-.096-.816-.432 0-.336.336-.432 1.056-.432 2.544 0 5.568.144 6.912.144 1.968 0 4.752-.144 6.96-.144 6 0 7.92 1.824 9.024 2.88 1.056 1.056 2.304 2.976 2.304 6.288 0 5.904-4.992 10.896-11.808 10.896-.24 0-.768 0-1.008-.048s-.576-.096-.576-.432c0-.384.336-.528 1.344-.528 2.688 0 6.432-3.072 6.432-7.968 0-1.584 0-4.752-2.688-7.152-1.728-1.584-3.84-1.872-4.944-1.872-.72 0-1.44.048-1.872.192-.24.096-.384.384-.384.912v19.2c0 4.416 0 8.208.24 10.272.144 1.344.432 2.4 1.872 2.592.672.096 1.728.192 2.448.192.528 0 .768.144.768.384 0 .336-.384.48-.912.48-3.168 0-6.192-.144-7.44-.144-1.104 0-4.128.144-6.048.144-.624 0-.96-.144-.96-.48 0-.24.192-.384.768-.384.72 0 1.296-.096 1.728-.192.96-.192 1.2-1.248 1.392-2.64.24-2.016.24-5.808.24-10.224Zm44.535-19.68v19.68c0 4.416 0 8.208.24 10.272.144 1.344.432 2.4 1.872 2.592.672.096 1.728.192 2.448.192.528 0 .768.144.768.384 0 .336-.384.48-.912.48-3.168 0-6.192-.144-7.536-.144-1.104 0-4.128.144-6.048.144-.624 0-.96-.144-.96-.48 0-.24.192-.384.768-.384.72 0 1.296-.096 1.728-.192.96-.192 1.248-1.248 1.392-2.64.24-2.016.24-5.808.24-10.224V4.544c-1.824.048-4.8.144-7.152.192-2.784.096-3.936.336-4.656 1.392-.48.72-.72 1.296-.816 1.68-.096.384-.24.576-.528.576-.336 0-.432-.24-.432-.768 0-.768.912-5.136 1.008-5.52.144-.624.288-.912.576-.912.384 0 .864.48 2.064.576 1.392.144 3.216.24 4.8.24h19.008c1.536 0 2.592-.144 3.312-.24.72-.144 1.104-.24 1.296-.24.336 0 .384.288.384 1.008 0 1.008-.144 4.32-.144 5.568-.048.48-.144.768-.432.768-.384 0-.48-.24-.528-.96 0-.144-.048-.384-.048-.528-.096-1.248-1.392-2.592-5.664-2.688a311.142 311.142 0 0 0-6.048-.144Zm32.074 21.072h-10.704c-.24 0-.336.096-.432.384l-2.592 6.864c-.48 1.2-.72 2.352-.72 2.928 0 .864.432 1.488 1.92 1.488h.72c.576 0 .72.096.72.384 0 .384-.288.48-.816.48-1.536 0-3.6-.144-5.088-.144-.528 0-3.168.144-5.664.144-.624 0-.912-.096-.912-.48 0-.288.288-.384.672-.384.432 0 1.008-.048 1.392-.096 2.208-.288 3.12-1.92 4.08-4.32L120.886 2.72c.576-1.392.912-1.92 1.344-1.92.384 0 .72.432 1.2 1.536 1.152 2.64 8.832 22.224 11.904 29.52 1.824 4.32 3.216 4.992 4.224 5.232.72.144 1.44.192 2.016.192.384 0 .624.096.624.384 0 .384-.432.48-2.208.48-1.728 0-5.568 0-9.408-.096-.864-.048-1.104-.096-1.104-.384 0-.24.192-.384.672-.432.336-.096.672-.528.432-1.104l-3.84-10.176c-.096-.24-.24-.336-.48-.336Zm-9.744-2.4h8.832c.24 0 .288-.144.24-.288l-4.32-11.856c-.144-.432-.336-.576-.528 0l-4.416 11.808c-.048.192 0 .336.192.336Zm63.306-20.928 4.368 29.664c.432 3.024.912 4.416 2.352 4.848 1.392.432 2.352.48 2.976.48.432 0 .768.048.768.336 0 .384-.576.528-1.248.528-1.2 0-7.824-.144-9.744-.288-1.104-.096-1.392-.24-1.392-.528 0-.24.192-.384.528-.528.288-.096.432-.72.24-2.064l-2.928-21.408-10.608 22.08c-1.104 2.256-1.344 2.688-1.776 2.688-.432 0-.912-.96-1.68-2.4-1.152-2.208-4.944-9.552-5.52-10.896-.432-1.008-3.456-7.392-5.136-10.992l-2.544 19.44c-.096.864-.144 1.488-.144 2.256 0 .912.624 1.344 1.44 1.536.864.192 1.536.24 2.016.24.384 0 .72.096.72.336 0 .432-.432.528-1.152.528-2.016 0-4.176-.144-5.04-.144-.912 0-3.216.144-4.752.144-.48 0-.864-.096-.864-.528 0-.24.288-.336.768-.336.384 0 .72 0 1.44-.144 1.344-.288 1.728-2.16 1.968-3.792l4.752-31.296c.144-.816.432-1.248.816-1.248.384 0 .672.24 1.296 1.488l13.104 27.072 13.056-27.408c.384-.768.624-1.152 1.056-1.152.432 0 .72.48.864 1.488Zm32.207 36.528c-13.776 0-19.344-10.32-19.344-18.816 0-8.208 5.424-18.816 19.824-18.816 11.952 0 19.392 6.96 19.392 17.952s-7.68 19.68-19.872 19.68Zm2.016-2.4c3.36 0 11.136-1.632 11.136-15.504 0-10.752-6.192-17.424-14.064-17.424-5.52 0-11.808 3.072-11.808 15.024 0 9.984 5.52 17.904 14.736 17.904Z"/></svg>